<?xml version="1.0" encoding="UTF-8"?>
<svg width="836px" height="158px" viewBox="0 0 836 158" version="1.1" xmlns="http://www.w3.org/2000/svg" xmlns:xlink="http://www.w3.org/1999/xlink">
    <!-- Generator: Sketch 50.2 (55047) - http://www.bohemiancoding.com/sketch -->
    <title>Group</title>
    <desc>Created with Sketch.</desc>
    <defs>
        <polygon id="path-1" points="0.06 0.489906323 835.301 0.489906323 835.301 37.8146852 0.06 37.8146852"></polygon>
    </defs>
    <g id="Page-1" stroke="none" stroke-width="1" fill="none" fill-rule="evenodd">
        <g id="CARUTH-CAPITAL-PARTNERS-(DARK-BACKGROUND)">
            <g id="Group">
                <g id="Group-4" transform="translate(0.000000, 60.000000)">
                    <mask id="mask-2" fill="white">
                        <use xlink:href="#path-1"></use>
                    </mask>
                    <g id="Clip-2"></g>
                    <path d="M541.288,21.799 C541.288,24.571 541.24,26.613 541.148,27.938 C541.115,28.37 541.038,28.716 540.917,28.981 C540.812,29.268 540.615,29.451 540.337,29.528 C540.101,29.605 539.765,29.643 539.328,29.643 C539.02,29.643 538.876,29.72 538.896,29.878 C538.896,30.066 539.079,30.157 539.453,30.157 C540.86,30.118 542.032,30.094 542.969,30.075 C543.858,30.094 545.298,30.118 547.288,30.157 C547.624,30.157 547.795,30.066 547.815,29.878 C547.815,29.715 547.667,29.638 547.364,29.638 C546.878,29.638 546.408,29.6 545.942,29.528 C545.529,29.451 545.255,29.268 545.121,28.976 C544.977,28.716 544.885,28.38 544.847,27.976 C544.737,26.626 544.694,24.566 544.708,21.799 L544.708,10.267 C544.708,9.959 544.785,9.777 544.928,9.72 C545.212,9.642 545.577,9.604 546.024,9.604 C546.379,9.604 546.806,9.662 547.306,9.777 C547.792,9.936 548.295,10.253 548.825,10.733 C549.218,11.078 549.53,11.453 549.77,11.857 C549.996,12.26 550.155,12.663 550.246,13.067 C550.356,13.456 550.423,13.812 550.453,14.138 C550.471,14.479 550.481,14.782 550.481,15.055 C550.433,16.54 550.01,17.692 549.208,18.519 C548.387,19.384 547.556,19.815 546.72,19.815 C546.437,19.815 546.24,19.83 546.134,19.868 C546.004,19.927 545.942,20.008 545.942,20.118 C545.957,20.296 546.067,20.387 546.269,20.387 C546.475,20.407 546.672,20.411 546.854,20.411 C548.891,20.397 550.543,19.743 551.807,18.456 C553.07,17.193 553.713,15.517 553.728,13.432 C553.713,12.644 553.565,11.948 553.282,11.338 C552.993,10.738 552.676,10.296 552.345,10.017 C552.253,9.873 552.095,9.72 551.865,9.551 C551.62,9.354 551.302,9.172 550.914,9.004 C550.52,8.816 550.02,8.663 549.416,8.537 C548.795,8.427 548.042,8.37 547.153,8.37 C545.736,8.408 544.386,8.437 543.103,8.456 C542.114,8.418 540.774,8.389 539.083,8.37 C538.675,8.37 538.473,8.451 538.473,8.619 C538.473,8.816 538.631,8.903 538.949,8.883 C539.395,8.883 539.755,8.912 540.04,8.97 C540.504,9.047 540.817,9.22 540.981,9.489 C541.134,9.734 541.22,10.108 541.24,10.618 C541.269,10.915 541.288,12.951 541.288,16.722 L541.288,21.799 Z M585.891,22.63 C586.026,22.63 586.122,22.698 586.179,22.827 L588.413,28.951 C588.503,29.317 588.417,29.537 588.153,29.615 C587.899,29.633 587.774,29.72 587.774,29.878 C587.789,30.028 588.067,30.099 588.605,30.099 C590.982,30.138 592.741,30.157 593.879,30.157 C594.397,30.157 594.748,30.128 594.94,30.075 C595.084,30.056 595.157,29.989 595.157,29.878 C595.157,29.72 595.041,29.643 594.805,29.643 C594.45,29.643 594.061,29.605 593.633,29.528 C593.35,29.47 593.004,29.249 592.596,28.865 C592.188,28.461 591.712,27.64 591.165,26.391 C588.302,19.09 586.001,13.182 584.258,8.658 C584.013,8.048 583.773,7.745 583.547,7.745 C583.331,7.726 583.072,8.11 582.769,8.898 L575.766,26.996 C575.636,27.342 575.506,27.655 575.372,27.938 C575.243,28.25 575.079,28.519 574.882,28.754 C574.527,29.215 574.032,29.49 573.393,29.585 C573.115,29.624 572.826,29.638 572.538,29.638 C572.308,29.638 572.197,29.72 572.197,29.878 C572.197,30.066 572.37,30.157 572.725,30.157 C574.397,30.118 575.492,30.094 576.01,30.075 C576.981,30.094 577.975,30.118 578.984,30.157 C579.292,30.157 579.445,30.066 579.445,29.878 C579.464,29.72 579.33,29.643 579.037,29.643 L578.614,29.643 C578.206,29.643 577.913,29.547 577.74,29.36 C577.577,29.2 577.495,28.994 577.495,28.754 C577.495,28.346 577.639,27.76 577.917,26.991 L579.417,22.856 C579.455,22.707 579.542,22.63 579.675,22.63 L585.891,22.63 Z M580.238,21.199 C580.118,21.199 580.079,21.131 580.127,20.997 L582.687,13.907 C582.726,13.759 582.779,13.673 582.85,13.653 C582.922,13.673 582.971,13.759 582.99,13.907 L585.511,21.026 C585.545,21.141 585.502,21.199 585.372,21.199 L580.238,21.199 Z M618.573,21.799 C618.573,24.571 618.524,26.613 618.433,27.938 C618.4,28.37 618.323,28.716 618.203,28.981 C618.097,29.268 617.9,29.451 617.622,29.528 C617.386,29.605 617.05,29.643 616.613,29.643 C616.305,29.643 616.162,29.72 616.18,29.878 C616.18,30.066 616.364,30.157 616.738,30.157 C618.16,30.118 619.293,30.094 620.133,30.075 C620.888,30.094 622.251,30.118 624.226,30.157 C624.596,30.157 624.783,30.066 624.783,29.878 C624.783,29.715 624.667,29.638 624.442,29.638 C624.039,29.638 623.583,29.6 623.087,29.528 C622.679,29.451 622.406,29.268 622.271,28.976 C622.127,28.716 622.036,28.365 622.002,27.933 C621.882,26.613 621.834,24.556 621.848,21.771 L621.848,21.371 C621.848,21.213 621.93,21.136 622.083,21.136 L624.509,21.19 C624.715,21.19 624.884,21.261 625.013,21.401 C625.23,21.646 625.6,22.155 626.128,22.923 C626.647,23.711 627.194,24.528 627.776,25.373 C629.221,27.573 630.495,28.986 631.594,29.615 C631.945,29.806 632.348,29.941 632.791,30.018 C633.217,30.109 633.813,30.157 634.577,30.157 L637.233,30.157 C637.588,30.157 637.766,30.066 637.766,29.878 C637.766,29.72 637.651,29.643 637.425,29.643 C637.205,29.643 636.95,29.615 636.647,29.557 C636.441,29.518 636.066,29.384 635.533,29.149 C634.995,28.922 634.323,28.408 633.515,27.602 C631.916,25.785 629.904,23.259 627.468,20.012 C628.866,18.841 629.841,17.726 630.398,16.674 C630.912,15.651 631.162,14.614 631.147,13.562 C631.128,12.558 630.912,11.712 630.504,11.016 C630.095,10.349 629.678,9.883 629.255,9.609 C628.491,9.075 627.674,8.725 626.8,8.566 C625.931,8.437 625.038,8.37 624.121,8.37 C622.857,8.408 621.55,8.437 620.196,8.456 C619.379,8.418 618.102,8.389 616.369,8.37 C615.959,8.37 615.758,8.451 615.758,8.619 C615.758,8.816 615.917,8.903 616.233,8.883 C616.68,8.883 617.041,8.912 617.324,8.97 C617.79,9.047 618.102,9.22 618.265,9.489 C618.418,9.734 618.505,10.108 618.524,10.618 C618.553,10.915 618.573,12.956 618.573,16.727 L618.573,21.799 Z M621.848,10.243 C621.834,10.017 621.92,9.883 622.113,9.834 C622.391,9.758 622.885,9.72 623.587,9.72 C624.024,9.72 624.496,9.801 624.995,9.959 C625.48,10.128 625.931,10.415 626.364,10.82 C626.825,11.203 627.199,11.741 627.483,12.438 C627.747,13.106 627.881,13.956 627.881,14.998 C627.862,16.175 627.694,17.107 627.373,17.798 C627.055,18.504 626.67,19.009 626.224,19.321 C625.999,19.498 625.758,19.623 625.499,19.7 C625.202,19.777 624.778,19.815 624.246,19.815 C623.477,19.815 622.766,19.715 622.113,19.518 C621.92,19.46 621.834,19.292 621.848,19.009 L621.848,10.243 Z M662.787,21.799 C662.787,24.571 662.739,26.613 662.647,27.938 C662.628,28.37 662.566,28.716 662.459,28.981 C662.321,29.268 662.119,29.451 661.845,29.528 C661.6,29.605 661.264,29.643 660.836,29.643 C660.519,29.643 660.371,29.72 660.385,29.878 C660.385,30.066 660.572,30.157 660.947,30.157 C662.364,30.118 663.536,30.094 664.463,30.075 C665.385,30.094 666.85,30.118 668.848,30.157 C669.175,30.157 669.352,30.066 669.376,29.878 C669.376,29.715 669.228,29.638 668.93,29.638 C668.435,29.638 667.959,29.6 667.494,29.528 C667.085,29.451 666.817,29.268 666.692,28.976 C666.542,28.716 666.447,28.38 666.404,27.976 C666.293,26.626 666.25,24.566 666.264,21.794 L666.264,9.984 L669.78,10.065 C671.004,10.103 671.86,10.277 672.35,10.589 C672.835,10.906 673.075,11.266 673.075,11.669 L673.099,11.996 C673.099,12.4 673.2,12.591 673.397,12.573 C673.545,12.573 673.632,12.419 673.651,12.107 C673.685,10.92 673.713,9.81 673.728,8.778 C673.728,8.374 673.661,8.173 673.517,8.173 C673.397,8.307 672.503,8.398 670.832,8.456 L659.785,8.456 C658.805,8.456 657.877,8.408 656.994,8.317 C656.658,8.278 656.408,8.211 656.245,8.12 C656.062,8.019 655.914,7.966 655.797,7.966 C655.649,7.966 655.543,8.149 655.471,8.513 C655.433,8.711 655.323,9.229 655.144,10.07 C655.087,10.454 655.03,10.81 654.972,11.136 C654.895,11.458 654.861,11.684 654.861,11.828 C654.842,12.126 654.923,12.274 655.111,12.274 C655.285,12.274 655.394,12.164 655.428,11.938 C655.486,11.703 655.639,11.366 655.894,10.925 C656.105,10.618 656.413,10.397 656.826,10.262 C657.234,10.171 657.83,10.113 658.618,10.094 L662.787,9.984 L662.787,21.799 Z M700.613,14.138 L700.699,14.138 C701.65,15.262 703.87,17.682 707.346,21.401 C710.656,24.834 713.399,27.66 715.58,29.873 C715.743,30.028 715.911,30.157 716.083,30.273 C716.228,30.431 716.376,30.507 716.52,30.507 C716.766,30.507 716.886,30.209 716.886,29.615 L717.189,11.42 C717.208,10.613 717.294,10.027 717.448,9.662 C717.578,9.292 717.836,9.066 718.231,8.97 C718.547,8.912 718.832,8.883 719.077,8.883 C719.408,8.883 719.571,8.797 719.571,8.619 C719.551,8.437 719.34,8.35 718.932,8.37 C718.245,8.37 717.659,8.379 717.169,8.398 C716.689,8.437 716.363,8.456 716.199,8.456 C715.507,8.418 714.383,8.389 712.818,8.37 C712.625,8.37 712.458,8.379 712.313,8.398 C712.164,8.437 712.092,8.509 712.092,8.619 C712.073,8.797 712.222,8.883 712.53,8.883 C713.019,8.864 713.514,8.922 714.013,9.057 C714.349,9.167 714.599,9.407 714.768,9.772 C714.902,10.156 714.969,10.781 714.969,11.645 L715.243,24.6 L715.109,24.6 C714.772,24.253 713.936,23.336 712.601,21.857 C711.242,20.402 710.032,19.124 708.97,18.029 C704.234,13.033 701.352,9.95 700.33,8.778 C700.127,8.504 699.945,8.283 699.782,8.115 C699.627,7.956 699.469,7.88 699.305,7.88 C699.042,7.894 698.921,8.22 698.941,8.859 L698.691,25.925 C698.71,27.136 698.663,28.01 698.542,28.543 C698.417,29.086 698.172,29.407 697.817,29.499 C697.389,29.595 696.971,29.643 696.563,29.643 C696.261,29.643 696.112,29.72 696.112,29.878 C696.112,30.085 696.314,30.176 696.722,30.157 C698.317,30.118 699.315,30.094 699.724,30.075 C700.248,30.094 701.4,30.118 703.172,30.157 C703.581,30.157 703.802,30.066 703.826,29.878 C703.826,29.72 703.667,29.643 703.35,29.643 C702.875,29.657 702.389,29.595 701.89,29.447 C701.607,29.35 701.386,29.072 701.223,28.616 C701.059,28.125 700.958,27.337 700.92,26.252 L700.613,14.138 Z M746.503,21.794 C746.503,24.566 746.455,26.613 746.364,27.938 C746.331,28.37 746.253,28.716 746.133,28.981 C746.028,29.268 745.831,29.451 745.552,29.528 C745.317,29.605 744.981,29.643 744.543,29.643 C744.236,29.643 744.092,29.72 744.111,29.878 C744.111,30.066 744.298,30.157 744.668,30.157 C746.084,30.118 747.262,30.094 748.199,30.075 C749.5,30.128 752.089,30.186 755.952,30.243 C756.475,30.243 756.84,30.204 757.046,30.128 C757.248,30.056 757.387,29.845 757.474,29.494 C757.565,29.149 757.646,28.616 757.718,27.905 C757.791,27.217 757.83,26.684 757.83,26.3 C757.843,25.969 757.772,25.795 757.603,25.777 C757.527,25.777 757.459,25.805 757.392,25.864 C757.334,25.916 757.296,26.035 757.282,26.213 C757.132,27.337 756.714,28.048 756.018,28.336 C755.644,28.514 755.207,28.616 754.703,28.634 C754.217,28.673 753.78,28.692 753.386,28.692 C751.994,28.706 751.085,28.543 750.658,28.198 C750.226,27.87 750.009,27.227 750.009,26.271 C749.996,24.844 749.996,23.351 750.009,21.794 L750.009,19.513 C749.996,19.326 750.047,19.23 750.172,19.23 C750.6,19.23 751.292,19.23 752.243,19.23 C753.17,19.248 753.799,19.278 754.135,19.316 C754.655,19.374 755.034,19.498 755.279,19.696 C755.495,19.902 755.639,20.152 755.702,20.44 C755.773,20.828 755.812,21.175 755.812,21.483 C755.792,21.651 755.875,21.737 756.062,21.737 C756.196,21.737 756.278,21.669 756.297,21.54 C756.316,21.429 756.321,21.309 756.321,21.19 C756.321,20.728 756.359,20.084 756.436,19.258 C756.571,17.918 756.647,17.217 756.667,17.164 C756.667,17.001 756.604,16.924 756.475,16.924 C756.364,16.924 756.215,17.049 756.023,17.303 C755.788,17.549 755.341,17.692 754.683,17.741 C754.275,17.76 753.535,17.77 752.474,17.77 C751.388,17.789 750.629,17.798 750.202,17.798 C750.057,17.798 749.996,17.688 750.009,17.472 L750.009,10.176 C750.009,9.989 750.077,9.892 750.202,9.892 C750.595,9.892 751.273,9.902 752.248,9.921 C753.208,9.94 753.852,9.969 754.169,10.008 C754.841,10.079 755.302,10.204 755.557,10.372 C755.821,10.551 755.98,10.771 756.038,11.035 C756.153,11.458 756.215,11.804 756.215,12.078 C756.187,12.346 756.273,12.481 756.475,12.481 C756.667,12.467 756.762,12.356 756.762,12.159 C756.821,11.496 756.874,10.863 756.907,10.267 C757.032,9.075 757.104,8.456 757.119,8.398 C757.119,8.249 757.065,8.163 756.956,8.144 C756.801,8.163 756.652,8.201 756.503,8.259 C756.258,8.317 755.86,8.37 755.307,8.427 C753.161,8.447 750.831,8.456 748.324,8.456 C747.334,8.418 745.989,8.389 744.298,8.37 C743.89,8.37 743.689,8.456 743.689,8.619 C743.689,8.816 743.847,8.903 744.164,8.883 C744.611,8.883 744.971,8.912 745.254,8.97 C745.72,9.047 746.033,9.22 746.196,9.489 C746.349,9.734 746.436,10.108 746.455,10.618 C746.484,10.915 746.503,12.951 746.503,16.722 L746.503,21.794 Z M784.555,21.799 C784.555,24.571 784.506,26.613 784.416,27.938 C784.382,28.37 784.305,28.716 784.185,28.981 C784.08,29.268 783.882,29.451 783.604,29.528 C783.369,29.605 783.033,29.643 782.595,29.643 C782.288,29.643 782.144,29.72 782.163,29.878 C782.163,30.066 782.345,30.157 782.72,30.157 C784.142,30.118 785.276,30.094 786.116,30.075 C786.871,30.094 788.234,30.118 790.208,30.157 C790.579,30.157 790.765,30.066 790.765,29.878 C790.765,29.715 790.65,29.638 790.424,29.638 C790.021,29.638 789.565,29.6 789.07,29.528 C788.662,29.451 788.388,29.268 788.253,28.976 C788.109,28.716 788.018,28.365 787.985,27.933 C787.864,26.613 787.817,24.556 787.831,21.771 L787.831,21.371 C787.831,21.213 787.913,21.136 788.066,21.136 L790.492,21.19 C790.698,21.19 790.867,21.261 790.996,21.401 C791.212,21.646 791.582,22.155 792.111,22.923 C792.629,23.711 793.176,24.528 793.757,25.373 C795.204,27.573 796.476,28.986 797.577,29.615 C797.927,29.806 798.331,29.941 798.773,30.018 C799.2,30.109 799.795,30.157 800.559,30.157 L803.215,30.157 C803.571,30.157 803.749,30.066 803.749,29.878 C803.749,29.72 803.633,29.643 803.408,29.643 C803.187,29.643 802.932,29.615 802.629,29.557 C802.423,29.518 802.048,29.384 801.515,29.149 C800.977,28.922 800.305,28.408 799.498,27.602 C797.898,25.785 795.886,23.259 793.451,20.012 C794.848,18.841 795.824,17.726 796.38,16.674 C796.894,15.651 797.144,14.614 797.129,13.562 C797.111,12.558 796.894,11.712 796.486,11.016 C796.078,10.349 795.66,9.883 795.238,9.609 C794.473,9.075 793.657,8.725 792.783,8.566 C791.914,8.437 791.02,8.37 790.103,8.37 C788.839,8.408 787.533,8.437 786.178,8.456 C785.362,8.418 784.084,8.389 782.35,8.37 C781.942,8.37 781.741,8.451 781.741,8.619 C781.741,8.816 781.899,8.903 782.215,8.883 C782.663,8.883 783.023,8.912 783.306,8.97 C783.772,9.047 784.084,9.22 784.248,9.489 C784.401,9.734 784.488,10.108 784.506,10.618 C784.536,10.915 784.555,12.956 784.555,16.727 L784.555,21.799 Z M787.831,10.243 C787.817,10.017 787.903,9.883 788.095,9.834 C788.374,9.758 788.868,9.72 789.57,9.72 C790.006,9.72 790.478,9.801 790.977,9.959 C791.462,10.128 791.914,10.415 792.346,10.82 C792.807,11.203 793.181,11.741 793.465,12.438 C793.729,13.106 793.864,13.956 793.864,14.998 C793.844,16.175 793.676,17.107 793.354,17.798 C793.038,18.504 792.653,19.009 792.207,19.321 C791.981,19.498 791.741,19.623 791.481,19.7 C791.183,19.777 790.76,19.815 790.228,19.815 C789.458,19.815 788.749,19.715 788.095,19.518 C787.903,19.46 787.817,19.292 787.831,19.009 L787.831,10.243 Z M828.231,30.561 C828.995,30.561 829.75,30.469 830.499,30.291 C831.262,30.123 831.993,29.821 832.684,29.379 C833.664,28.668 834.36,27.861 834.774,26.958 C835.129,26.079 835.301,25.214 835.301,24.369 C835.301,23 834.96,21.756 834.279,20.642 C833.568,19.518 832.381,18.307 830.714,17.011 L829.936,16.405 C828.818,15.507 828.044,14.753 827.617,14.143 C827.169,13.523 826.958,12.894 826.973,12.255 C826.973,11.376 827.286,10.656 827.905,10.103 C828.457,9.561 829.259,9.287 830.306,9.287 C831.214,9.316 831.901,9.479 832.367,9.777 C832.828,10.084 833.155,10.392 833.347,10.694 C833.649,11.078 833.851,11.449 833.961,11.814 C834.034,12.174 834.072,12.433 834.072,12.582 C834.072,12.928 834.168,13.101 834.365,13.101 C834.567,13.12 834.667,12.832 834.667,12.231 C834.667,11.132 834.687,10.32 834.725,9.796 C834.764,9.282 834.783,8.956 834.783,8.806 C834.783,8.61 834.653,8.494 834.398,8.456 C834.043,8.345 833.568,8.23 832.967,8.12 C832.358,8.019 831.593,7.966 830.671,7.966 C828.716,7.985 827.161,8.485 826.002,9.47 C824.812,10.483 824.215,11.799 824.215,13.408 C824.197,14.546 824.504,15.661 825.143,16.756 C825.777,17.856 826.848,19.018 828.346,20.248 L829.643,21.276 C830.796,22.184 831.545,23 831.891,23.721 C832.103,24.086 832.242,24.446 832.314,24.791 C832.353,25.157 832.372,25.522 832.372,25.887 C832.372,26.674 832.064,27.409 831.455,28.082 C830.834,28.788 829.893,29.153 828.629,29.182 C827.755,29.182 826.954,28.956 826.223,28.505 C825.499,28.063 824.965,27.319 824.628,26.267 C824.465,25.704 824.379,25.209 824.379,24.786 C824.379,24.658 824.375,24.547 824.355,24.45 C824.335,24.35 824.254,24.297 824.1,24.297 C823.909,24.317 823.803,24.571 823.784,25.056 C823.702,25.742 823.654,27.001 823.639,28.831 C823.639,29.119 823.673,29.331 823.745,29.46 C823.827,29.595 823.966,29.71 824.167,29.816 C825.316,30.311 826.67,30.561 828.231,30.561 Z" id="Fill-1" fill="#FFFFFE" mask="url(#mask-2)"></path>
                    <path d="M21.326,37.811 C22.841,37.811 24.35,37.716 25.851,37.535 C27.367,37.332 28.6,37.064 29.551,36.726 C29.936,36.562 30.204,36.365 30.353,36.154 C30.549,35.972 30.675,35.705 30.737,35.352 C30.981,34.416 31.217,33.223 31.445,31.785 C31.657,30.402 31.759,29.506 31.759,29.09 C31.759,28.65 31.617,28.407 31.327,28.375 C31.021,28.351 30.824,28.665 30.737,29.325 C30.526,30.339 30.007,31.376 29.174,32.429 C27.509,34.291 24.727,35.171 20.823,35.084 C17.57,35.084 14.427,33.686 11.395,30.889 C8.229,28.092 6.579,23.897 6.445,18.287 C6.421,15.953 6.704,13.722 7.316,11.585 C7.921,9.488 9.038,7.649 10.656,6.086 C12.542,4.161 15.401,3.186 19.228,3.155 C23.667,3.249 26.747,4.223 28.475,6.086 C29.63,7.397 30.227,8.843 30.251,10.407 C30.227,11.099 30.384,11.444 30.737,11.444 C31.107,11.444 31.288,11.082 31.288,10.367 C31.366,8.985 31.421,7.295 31.445,5.284 C31.571,3.768 31.641,2.904 31.673,2.691 C31.673,2.385 31.437,2.204 30.981,2.141 C30.314,2.031 29.614,1.89 28.883,1.701 C28.121,1.552 27.296,1.426 26.4,1.332 C24.57,1.01 22.362,0.853 19.778,0.853 C16.423,0.853 13.594,1.293 11.269,2.18 C8.936,3.053 6.956,4.271 5.337,5.826 C3.208,7.979 1.778,10.242 1.047,12.622 C0.316,15.011 -0.029,17.053 0.002,18.743 C-0.029,21.044 0.364,23.425 1.181,25.876 C1.967,28.32 3.467,30.583 5.667,32.664 C9.831,36.154 15.048,37.859 21.326,37.803 L21.326,37.811 Z M57.754,24.84 C57.975,24.84 58.131,24.949 58.226,25.161 L61.879,35.179 C62.028,35.776 61.887,36.138 61.454,36.263 C61.038,36.294 60.834,36.436 60.834,36.696 C60.857,36.939 61.313,37.057 62.193,37.057 C66.083,37.119 68.957,37.151 70.82,37.151 C71.669,37.151 72.242,37.104 72.557,37.018 C72.792,36.986 72.91,36.875 72.91,36.696 C72.91,36.436 72.722,36.31 72.336,36.31 C71.755,36.31 71.118,36.247 70.419,36.121 C69.956,36.028 69.39,35.666 68.722,35.037 C68.054,34.377 67.277,33.034 66.381,30.992 C61.698,19.049 57.935,9.385 55.083,1.985 C54.683,0.986 54.289,0.491 53.92,0.491 C53.566,0.46 53.142,1.088 52.648,2.377 L41.192,31.981 C40.98,32.547 40.768,33.058 40.548,33.521 C40.335,34.032 40.068,34.472 39.747,34.857 C39.165,35.611 38.356,36.059 37.312,36.216 C36.855,36.279 36.384,36.302 35.912,36.302 C35.535,36.302 35.354,36.436 35.354,36.696 C35.354,37.001 35.638,37.151 36.219,37.151 C38.953,37.088 40.745,37.049 41.593,37.018 C43.18,37.049 44.807,37.088 46.456,37.151 C46.959,37.151 47.21,37.001 47.21,36.696 C47.242,36.436 47.021,36.31 46.543,36.31 L45.851,36.31 C45.184,36.31 44.705,36.154 44.421,35.846 C44.154,35.587 44.021,35.249 44.021,34.857 C44.021,34.189 44.256,33.23 44.712,31.973 L47.164,25.208 C47.227,24.965 47.368,24.84 47.587,24.84 L57.754,24.84 Z M48.506,22.498 C48.31,22.498 48.248,22.388 48.326,22.168 L52.514,10.572 C52.577,10.328 52.663,10.186 52.781,10.156 C52.899,10.186 52.977,10.328 53.009,10.572 L57.134,22.215 C57.189,22.404 57.118,22.498 56.906,22.498 L48.506,22.498 Z M80.419,23.481 C80.419,28.013 80.34,31.353 80.191,33.521 C80.135,34.228 80.01,34.794 79.814,35.226 C79.641,35.698 79.318,35.995 78.863,36.121 C78.479,36.247 77.928,36.31 77.213,36.31 C76.71,36.31 76.474,36.436 76.506,36.696 C76.506,37.001 76.804,37.151 77.417,37.151 C79.743,37.088 81.597,37.049 82.972,37.018 C84.205,37.049 86.437,37.088 89.666,37.151 C90.271,37.151 90.577,37.001 90.577,36.696 C90.577,36.428 90.389,36.302 90.02,36.302 C89.359,36.302 88.613,36.24 87.804,36.121 C87.136,35.995 86.689,35.698 86.468,35.218 C86.232,34.794 86.084,34.22 86.028,33.513 C85.832,31.353 85.753,27.99 85.777,23.433 L85.777,22.781 C85.777,22.522 85.911,22.396 86.162,22.396 L90.129,22.482 C90.467,22.482 90.742,22.601 90.954,22.828 C91.308,23.229 91.913,24.062 92.777,25.319 C93.626,26.607 94.522,27.943 95.472,29.325 C97.837,32.924 99.919,35.234 101.718,36.263 C102.292,36.577 102.951,36.797 103.674,36.923 C104.374,37.073 105.348,37.151 106.597,37.151 L110.941,37.151 C111.523,37.151 111.813,37.001 111.813,36.696 C111.813,36.436 111.625,36.31 111.256,36.31 C110.894,36.31 110.478,36.263 109.983,36.168 C109.646,36.106 109.032,35.886 108.161,35.501 C107.281,35.132 106.181,34.291 104.86,32.971 C102.244,30.001 98.952,25.868 94.969,20.557 C97.255,18.641 98.85,16.818 99.762,15.097 C100.603,13.424 101.011,11.727 100.987,10.006 C100.956,8.364 100.603,6.981 99.935,5.842 C99.267,4.75 98.583,3.988 97.892,3.539 C96.643,2.668 95.307,2.094 93.877,1.835 C92.455,1.623 90.994,1.513 89.493,1.513 C87.426,1.576 85.29,1.623 83.074,1.654 C81.738,1.591 79.649,1.544 76.812,1.513 C76.145,1.513 75.815,1.647 75.815,1.922 C75.815,2.243 76.074,2.385 76.593,2.353 C77.323,2.353 77.913,2.401 78.376,2.494 C79.138,2.62 79.649,2.904 79.915,3.344 C80.167,3.744 80.309,4.357 80.34,5.19 C80.387,5.677 80.419,9.016 80.419,15.184 L80.419,23.481 Z M85.777,4.577 C85.753,4.208 85.895,3.988 86.21,3.909 C86.665,3.783 87.474,3.72 88.621,3.72 C89.335,3.72 90.106,3.854 90.923,4.114 C91.717,4.388 92.455,4.86 93.163,5.52 C93.917,6.149 94.529,7.028 94.992,8.168 C95.425,9.259 95.645,10.65 95.645,12.355 C95.613,14.28 95.338,15.804 94.812,16.935 C94.294,18.091 93.665,18.916 92.935,19.426 C92.565,19.717 92.172,19.922 91.748,20.047 C91.26,20.173 90.569,20.236 89.697,20.236 C88.44,20.236 87.278,20.07 86.21,19.748 C85.895,19.654 85.753,19.379 85.777,18.916 L85.777,4.577 Z M115.457,22.074 C115.457,25.429 115.85,28.084 116.635,30.032 C117.398,32.012 118.356,33.521 119.511,34.566 C121.256,36.034 123.07,36.962 124.956,37.332 C126.842,37.677 128.413,37.842 129.662,37.811 C131.178,37.811 132.734,37.59 134.329,37.143 C135.932,36.696 137.542,35.783 139.169,34.401 C141.023,32.657 142.233,30.504 142.798,27.958 C143.293,25.436 143.521,22.86 143.489,20.219 L143.489,15.184 C143.489,11.727 143.506,9.354 143.537,8.065 C143.537,6.777 143.552,5.819 143.584,5.19 C143.615,4.325 143.772,3.681 144.055,3.257 C144.291,2.841 144.7,2.589 145.281,2.494 C145.745,2.401 146.185,2.353 146.601,2.353 C147.151,2.385 147.426,2.243 147.426,1.922 C147.426,1.647 147.104,1.513 146.467,1.513 C145.533,1.513 144.527,1.528 143.458,1.56 C142.327,1.623 141.597,1.654 141.274,1.654 C140.661,1.591 138.909,1.544 136.01,1.513 C135.374,1.513 135.052,1.647 135.052,1.922 C135.052,2.243 135.311,2.385 135.838,2.353 C136.442,2.353 136.993,2.401 137.487,2.494 C138.25,2.62 138.76,2.904 139.027,3.351 C139.278,3.744 139.42,4.357 139.451,5.19 C139.514,5.685 139.546,9.016 139.546,15.184 L139.546,21.084 C139.57,23.512 139.467,25.727 139.232,27.739 C138.917,29.782 138.131,31.463 136.883,32.782 C135.979,33.686 134.958,34.33 133.827,34.715 C132.695,35.115 131.61,35.321 130.582,35.321 C130.212,35.321 129.796,35.288 129.332,35.226 C128.885,35.195 128.421,35.115 127.926,34.99 C127.462,34.872 126.976,34.66 126.449,34.369 C125.946,34.126 125.419,33.795 124.862,33.379 C123.762,32.508 122.905,31.172 122.292,29.372 C121.625,27.653 121.287,25.13 121.287,21.799 L121.287,15.184 C121.287,11.734 121.302,9.362 121.334,8.065 C121.334,6.777 121.35,5.819 121.381,5.19 C121.413,4.334 121.562,3.681 121.829,3.257 C122.08,2.841 122.497,2.589 123.079,2.494 C123.526,2.401 123.966,2.353 124.398,2.353 C124.885,2.385 125.136,2.243 125.136,1.922 C125.136,1.647 124.799,1.513 124.131,1.513 C122.002,1.576 120.132,1.623 118.514,1.654 C116.8,1.591 114.585,1.544 111.843,1.513 C111.175,1.513 110.846,1.647 110.846,1.922 C110.846,2.243 111.104,2.385 111.623,2.353 C112.354,2.353 112.951,2.401 113.407,2.494 C114.169,2.62 114.68,2.904 114.947,3.344 C115.198,3.744 115.339,4.357 115.371,5.19 C115.426,5.685 115.457,9.016 115.457,15.184 L115.457,22.074 Z M165.345,23.481 C165.345,28.013 165.266,31.353 165.117,33.521 C165.085,34.228 164.983,34.794 164.81,35.226 C164.583,35.698 164.253,35.995 163.805,36.121 C163.404,36.247 162.854,36.31 162.155,36.31 C161.637,36.31 161.393,36.436 161.417,36.696 C161.417,37.001 161.723,37.151 162.335,37.151 C164.654,37.088 166.57,37.049 168.087,37.018 C169.596,37.049 171.991,37.088 175.26,37.151 C175.794,37.151 176.085,37.001 176.124,36.696 C176.124,36.428 175.881,36.302 175.394,36.302 C174.584,36.302 173.807,36.24 173.044,36.121 C172.376,35.995 171.937,35.698 171.732,35.218 C171.488,34.794 171.332,34.243 171.261,33.583 C171.08,31.376 171.009,28.006 171.033,23.472 L171.033,4.153 L176.784,4.286 C178.788,4.349 180.186,4.632 180.987,5.143 C181.781,5.661 182.173,6.25 182.173,6.911 L182.213,7.445 C182.213,8.105 182.378,8.419 182.7,8.387 C182.944,8.387 183.085,8.136 183.116,7.625 C183.172,5.685 183.219,3.87 183.242,2.18 C183.242,1.521 183.133,1.191 182.897,1.191 C182.7,1.41 181.239,1.56 178.505,1.654 L160.435,1.654 C158.832,1.654 157.315,1.576 155.87,1.426 C155.32,1.364 154.912,1.254 154.644,1.105 C154.346,0.94 154.102,0.853 153.913,0.853 C153.67,0.853 153.497,1.151 153.379,1.748 C153.316,2.071 153.135,2.919 152.845,4.294 C152.75,4.923 152.656,5.504 152.562,6.038 C152.437,6.565 152.381,6.934 152.381,7.17 C152.35,7.657 152.483,7.9 152.79,7.9 C153.072,7.9 153.253,7.72 153.308,7.351 C153.403,6.966 153.654,6.415 154.071,5.693 C154.416,5.19 154.919,4.828 155.595,4.608 C156.263,4.459 157.237,4.365 158.525,4.334 L165.345,4.153 L165.345,23.481 Z M200.36,16.511 C200.179,16.511 200.084,16.402 200.084,16.181 L200.084,15.191 C200.084,11.734 200.101,9.362 200.132,8.073 C200.132,6.785 200.147,5.819 200.179,5.19 C200.21,4.334 200.36,3.689 200.627,3.257 C200.879,2.841 201.295,2.589 201.876,2.494 C202.427,2.401 202.867,2.353 203.188,2.353 C203.738,2.385 204.021,2.243 204.021,1.922 C204.021,1.647 203.699,1.513 203.063,1.513 C200.8,1.576 198.89,1.623 197.312,1.654 C195.725,1.591 193.541,1.544 190.751,1.513 C190.107,1.513 189.793,1.647 189.793,1.922 C189.793,2.243 190.052,2.385 190.571,2.353 C191.301,2.353 191.891,2.401 192.354,2.494 C193.116,2.62 193.627,2.904 193.894,3.351 C194.146,3.744 194.287,4.357 194.318,5.19 C194.365,5.685 194.397,9.016 194.397,15.184 L194.397,23.481 C194.397,28.006 194.318,31.353 194.169,33.521 C194.114,34.228 193.988,34.794 193.792,35.226 C193.619,35.698 193.296,35.995 192.841,36.121 C192.456,36.247 191.906,36.31 191.191,36.31 C190.688,36.31 190.453,36.436 190.484,36.696 C190.484,37.001 190.783,37.151 191.396,37.151 C193.697,37.088 195.615,37.049 197.147,37.018 C198.663,37.049 201.027,37.088 204.257,37.151 C204.831,37.151 205.137,37.001 205.168,36.696 C205.168,36.428 204.924,36.302 204.43,36.302 C203.636,36.302 202.867,36.24 202.104,36.121 C201.428,35.995 200.988,35.698 200.784,35.218 C200.524,34.785 200.376,34.243 200.313,33.583 C200.132,31.368 200.062,27.997 200.084,23.464 L200.084,19.324 C200.084,19.136 200.179,19.041 200.36,19.041 L217.817,19.041 C217.975,19.041 218.077,19.136 218.108,19.324 L218.108,23.472 C218.108,28.006 218.021,31.353 217.857,33.521 C217.802,34.228 217.684,34.794 217.503,35.226 C217.33,35.698 217.009,35.995 216.552,36.121 C216.152,36.247 215.602,36.31 214.902,36.31 C214.399,36.31 214.164,36.436 214.195,36.696 C214.195,37.001 214.51,37.151 215.154,37.151 C217.425,37.088 219.326,37.049 220.858,37.018 C222.375,37.049 224.74,37.088 227.969,37.151 C228.542,37.151 228.849,37.001 228.879,36.696 C228.879,36.428 228.636,36.302 228.141,36.302 C227.347,36.302 226.578,36.24 225.815,36.121 C225.14,35.995 224.692,35.698 224.472,35.218 C224.229,34.794 224.087,34.243 224.024,33.583 C223.843,31.376 223.773,28.006 223.797,23.472 L223.797,15.184 C223.797,11.727 223.813,9.354 223.843,8.065 C223.843,6.777 223.859,5.819 223.891,5.19 C223.922,4.334 224.072,3.681 224.339,3.257 C224.59,2.841 225.006,2.589 225.588,2.494 C226.13,2.401 226.57,2.353 226.916,2.353 C227.466,2.385 227.74,2.243 227.74,1.922 C227.74,1.647 227.418,1.513 226.782,1.513 C224.527,1.576 222.61,1.623 221.031,1.654 C219.443,1.591 217.252,1.544 214.462,1.513 C213.818,1.513 213.504,1.647 213.504,1.922 C213.504,2.243 213.764,2.385 214.282,2.353 C215.013,2.353 215.609,2.401 216.066,2.494 C216.828,2.62 217.338,2.904 217.605,3.351 C217.857,3.744 217.998,4.365 218.03,5.19 C218.077,5.685 218.108,9.016 218.108,15.191 L218.108,16.181 C218.077,16.402 217.982,16.511 217.833,16.511 L200.36,16.511 Z M272.349,37.811 C273.864,37.811 275.373,37.716 276.874,37.535 C278.39,37.332 279.624,37.064 280.574,36.726 C280.959,36.562 281.227,36.365 281.376,36.154 C281.572,35.972 281.697,35.705 281.76,35.352 C282.004,34.416 282.24,33.223 282.468,31.785 C282.68,30.402 282.782,29.506 282.782,29.09 C282.782,28.65 282.64,28.407 282.35,28.375 C282.043,28.351 281.847,28.665 281.76,29.325 C281.549,30.339 281.03,31.376 280.197,32.429 C278.532,34.291 275.75,35.171 271.846,35.084 C268.593,35.084 265.45,33.686 262.417,30.889 C259.251,28.092 257.602,23.897 257.468,18.287 C257.444,15.953 257.728,13.722 258.34,11.585 C258.945,9.488 260.061,7.649 261.679,6.086 C263.564,4.161 266.424,3.186 270.25,3.155 C274.689,3.249 277.77,4.223 279.498,6.086 C280.653,7.397 281.25,8.843 281.274,10.407 C281.25,11.099 281.407,11.444 281.76,11.444 C282.13,11.444 282.311,11.082 282.311,10.367 C282.389,8.985 282.444,7.295 282.468,5.284 C282.593,3.768 282.664,2.904 282.696,2.691 C282.696,2.385 282.46,2.204 282.004,2.141 C281.336,2.031 280.637,1.89 279.907,1.701 C279.144,1.552 278.32,1.426 277.423,1.332 C275.593,1.01 273.385,0.853 270.801,0.853 C267.446,0.853 264.618,1.293 262.292,2.18 C259.958,3.053 257.979,4.271 256.36,5.826 C254.23,7.979 252.801,10.242 252.071,12.622 C251.339,15.011 250.994,17.053 251.025,18.743 C250.994,21.044 251.387,23.425 252.204,25.876 C252.99,28.32 254.49,30.583 256.69,32.664 C260.854,36.154 266.071,37.859 272.349,37.803 L272.349,37.811 Z M308.777,24.84 C308.998,24.84 309.154,24.949 309.249,25.161 L312.902,35.179 C313.051,35.776 312.91,36.138 312.478,36.263 C312.061,36.294 311.857,36.436 311.857,36.696 C311.88,36.939 312.336,37.057 313.216,37.057 C317.105,37.119 319.98,37.151 321.843,37.151 C322.691,37.151 323.265,37.104 323.58,37.018 C323.814,36.986 323.933,36.875 323.933,36.696 C323.933,36.436 323.745,36.31 323.359,36.31 C322.778,36.31 322.142,36.247 321.442,36.121 C320.979,36.028 320.413,35.666 319.746,35.037 C319.077,34.377 318.3,33.034 317.404,30.992 C312.721,19.049 308.958,9.385 306.106,1.985 C305.706,0.986 305.312,0.491 304.943,0.491 C304.589,0.46 304.165,1.088 303.67,2.377 L292.216,31.981 C292.003,32.547 291.791,33.058 291.571,33.521 C291.358,34.032 291.092,34.472 290.77,34.857 C290.188,35.611 289.379,36.059 288.334,36.216 C287.878,36.279 287.407,36.302 286.936,36.302 C286.558,36.302 286.378,36.436 286.378,36.696 C286.378,37.001 286.661,37.151 287.242,37.151 C289.976,37.088 291.768,37.049 292.616,37.018 C294.204,37.049 295.83,37.088 297.479,37.151 C297.982,37.151 298.233,37.001 298.233,36.696 C298.265,36.436 298.045,36.31 297.565,36.31 L296.874,36.31 C296.207,36.31 295.727,36.154 295.444,35.846 C295.177,35.587 295.044,35.249 295.044,34.857 C295.044,34.189 295.279,33.23 295.735,31.973 L298.187,25.208 C298.25,24.965 298.391,24.84 298.61,24.84 L308.777,24.84 Z M299.53,22.498 C299.333,22.498 299.271,22.388 299.349,22.168 L303.537,10.572 C303.6,10.328 303.686,10.186 303.804,10.156 C303.922,10.186 304,10.328 304.032,10.572 L308.157,22.215 C308.211,22.404 308.141,22.498 307.929,22.498 L299.53,22.498 Z M331.441,23.481 C331.441,28.013 331.363,31.353 331.214,33.521 C331.158,34.228 331.033,34.794 330.836,35.226 C330.664,35.698 330.341,35.995 329.886,36.121 C329.501,36.247 328.951,36.31 328.236,36.31 C327.733,36.31 327.498,36.436 327.529,36.696 C327.529,37.001 327.827,37.151 328.44,37.151 C330.742,37.088 332.659,37.049 334.191,37.018 C335.645,37.049 338.002,37.088 341.255,37.151 C341.804,37.151 342.087,37.001 342.119,36.696 C342.119,36.428 341.875,36.302 341.38,36.302 C340.586,36.302 339.816,36.24 339.055,36.121 C338.379,35.995 337.931,35.698 337.711,35.218 C337.476,34.794 337.326,34.243 337.263,33.583 C337.083,31.376 337.012,28.006 337.036,23.481 L337.036,4.616 C337.036,4.114 337.161,3.815 337.397,3.72 C337.86,3.595 338.458,3.532 339.188,3.532 C339.769,3.532 340.469,3.626 341.286,3.815 C342.08,4.074 342.905,4.593 343.769,5.379 C344.413,5.944 344.923,6.557 345.316,7.217 C345.686,7.877 345.945,8.537 346.094,9.197 C346.275,9.833 346.385,10.414 346.432,10.949 C346.463,11.507 346.479,12.002 346.479,12.449 C346.4,14.877 345.709,16.762 344.397,18.114 C343.054,19.528 341.695,20.236 340.328,20.236 C339.864,20.236 339.542,20.258 339.369,20.322 C339.157,20.416 339.055,20.55 339.055,20.731 C339.078,21.021 339.259,21.17 339.589,21.17 C339.927,21.201 340.249,21.209 340.547,21.209 C343.878,21.186 346.581,20.117 348.648,18.012 C350.714,15.945 351.767,13.203 351.791,9.794 C351.767,8.505 351.523,7.366 351.06,6.368 C350.588,5.386 350.07,4.663 349.528,4.208 C349.378,3.972 349.119,3.72 348.742,3.446 C348.341,3.123 347.823,2.825 347.186,2.55 C346.542,2.243 345.725,1.992 344.734,1.788 C343.722,1.607 342.488,1.513 341.035,1.513 C338.717,1.576 336.509,1.623 334.411,1.654 C332.792,1.591 330.601,1.544 327.835,1.513 C327.167,1.513 326.838,1.647 326.838,1.922 C326.838,2.243 327.097,2.385 327.616,2.353 C328.346,2.353 328.936,2.401 329.398,2.494 C330.161,2.62 330.672,2.904 330.938,3.344 C331.19,3.744 331.331,4.357 331.363,5.19 C331.41,5.677 331.441,9.008 331.441,15.176 L331.441,23.481 Z M363.974,23.481 C363.974,28.195 363.896,31.627 363.746,33.772 C363.691,35.155 363.244,35.941 362.418,36.121 C362.034,36.247 361.483,36.31 360.769,36.31 C360.266,36.31 360.03,36.436 360.062,36.696 C360.062,37.001 360.359,37.151 360.973,37.151 C363.274,37.088 365.192,37.049 366.724,37.018 C368.209,37.049 370.574,37.088 373.826,37.151 C374.376,37.151 374.667,37.001 374.698,36.696 C374.698,36.428 374.455,36.302 373.959,36.302 C373.166,36.302 372.396,36.24 371.634,36.121 C370.959,36.028 370.511,35.76 370.291,35.313 C370.047,34.944 369.89,34.448 369.796,33.812 C369.646,31.635 369.592,28.186 369.615,23.472 L369.615,15.184 C369.615,11.727 369.631,9.354 369.662,8.065 C369.662,6.777 369.678,5.819 369.709,5.19 C369.741,4.334 369.89,3.681 370.157,3.257 C370.409,2.841 370.825,2.589 371.414,2.494 C371.917,2.401 372.373,2.353 372.773,2.353 C373.268,2.385 373.512,2.228 373.512,1.874 C373.488,1.631 373.166,1.513 372.561,1.513 C370.393,1.576 368.53,1.623 366.991,1.654 C365.223,1.591 363.244,1.544 361.059,1.513 C360.336,1.513 359.967,1.631 359.967,1.874 C359.967,2.228 360.211,2.393 360.682,2.362 C361.263,2.362 361.813,2.424 362.332,2.542 C363.314,2.731 363.833,3.611 363.896,5.19 C363.942,5.685 363.974,9.016 363.974,15.184 L363.974,23.481 Z M393.034,23.481 C393.034,28.013 392.955,31.353 392.806,33.521 C392.774,34.228 392.672,34.794 392.5,35.226 C392.271,35.698 391.942,35.995 391.494,36.121 C391.093,36.247 390.543,36.31 389.844,36.31 C389.326,36.31 389.082,36.436 389.105,36.696 C389.105,37.001 389.412,37.151 390.024,37.151 C392.342,37.088 394.259,37.049 395.776,37.018 C397.284,37.049 399.68,37.088 402.948,37.151 C403.483,37.151 403.774,37.001 403.813,36.696 C403.813,36.428 403.57,36.302 403.083,36.302 C402.273,36.302 401.495,36.24 400.733,36.121 C400.065,35.995 399.625,35.698 399.421,35.218 C399.177,34.794 399.021,34.243 398.95,33.583 C398.769,31.376 398.698,28.006 398.722,23.472 L398.722,4.153 L404.473,4.286 C406.476,4.349 407.875,4.632 408.676,5.143 C409.47,5.661 409.862,6.25 409.862,6.911 L409.902,7.445 C409.902,8.105 410.067,8.419 410.389,8.387 C410.633,8.387 410.774,8.136 410.805,7.625 C410.861,5.685 410.908,3.87 410.931,2.18 C410.931,1.521 410.821,1.191 410.585,1.191 C410.389,1.41 408.928,1.56 406.194,1.654 L388.123,1.654 C386.521,1.654 385.004,1.576 383.559,1.426 C383.008,1.364 382.6,1.254 382.333,1.105 C382.035,0.94 381.791,0.853 381.602,0.853 C381.358,0.853 381.186,1.151 381.068,1.748 C381.005,2.071 380.824,2.919 380.533,4.294 C380.439,4.923 380.345,5.504 380.251,6.038 C380.125,6.565 380.07,6.934 380.07,7.17 C380.039,7.657 380.172,7.9 380.479,7.9 C380.761,7.9 380.942,7.72 380.997,7.351 C381.092,6.966 381.343,6.415 381.759,5.693 C382.105,5.19 382.607,4.828 383.284,4.608 C383.951,4.459 384.926,4.365 386.214,4.334 L393.034,4.153 L393.034,23.481 Z M431.239,24.84 C431.458,24.84 431.616,24.949 431.71,25.161 L435.364,35.179 C435.513,35.776 435.372,36.138 434.939,36.263 C434.523,36.294 434.319,36.436 434.319,36.696 C434.342,36.939 434.797,37.057 435.677,37.057 C439.567,37.119 442.442,37.151 444.304,37.151 C445.153,37.151 445.727,37.104 446.041,37.018 C446.276,36.986 446.394,36.875 446.394,36.696 C446.394,36.436 446.206,36.31 445.821,36.31 C445.24,36.31 444.603,36.247 443.904,36.121 C443.44,36.028 442.875,35.666 442.207,35.037 C441.539,34.377 440.761,33.034 439.865,30.992 C435.183,19.049 431.419,9.385 428.568,1.985 C428.167,0.986 427.774,0.491 427.405,0.491 C427.051,0.46 426.626,1.088 426.132,2.377 L414.677,31.981 C414.465,32.547 414.252,33.058 414.032,33.521 C413.82,34.032 413.553,34.472 413.231,34.857 C412.649,35.611 411.84,36.059 410.796,36.216 C410.339,36.279 409.869,36.302 409.396,36.302 C409.02,36.302 408.839,36.436 408.839,36.696 C408.839,37.001 409.122,37.151 409.704,37.151 C412.438,37.088 414.229,37.049 415.077,37.018 C416.665,37.049 418.291,37.088 419.941,37.151 C420.444,37.151 420.695,37.001 420.695,36.696 C420.726,36.436 420.506,36.31 420.027,36.31 L419.335,36.31 C418.667,36.31 418.189,36.154 417.906,35.846 C417.639,35.587 417.505,35.249 417.505,34.857 C417.505,34.189 417.741,33.23 418.197,31.973 L420.648,25.208 C420.711,24.965 420.852,24.84 421.072,24.84 L431.239,24.84 Z M421.991,22.498 C421.795,22.498 421.732,22.388 421.811,22.168 L425.998,10.572 C426.061,10.328 426.147,10.186 426.265,10.156 C426.383,10.186 426.461,10.328 426.494,10.572 L430.618,22.215 C430.673,22.404 430.602,22.498 430.39,22.498 L421.991,22.498 Z M459.59,15.184 C459.59,11.727 459.607,9.354 459.638,8.065 C459.638,6.777 459.654,5.819 459.685,5.19 C459.716,4.325 459.866,3.681 460.133,3.257 C460.385,2.841 460.801,2.589 461.382,2.494 C461.988,2.401 462.584,2.353 463.167,2.353 C463.7,2.385 463.975,2.243 463.975,1.922 C463.975,1.647 463.654,1.513 463.017,1.513 C460.62,1.576 458.562,1.623 456.826,1.654 C455.208,1.591 453.117,1.544 450.564,1.513 C449.896,1.513 449.566,1.647 449.566,1.922 C449.566,2.243 449.826,2.385 450.344,2.353 C450.957,2.353 451.459,2.401 451.86,2.494 C452.623,2.62 453.133,2.904 453.4,3.351 C453.652,3.744 453.792,4.357 453.825,5.19 C453.872,5.685 453.903,9.016 453.903,15.184 L453.903,23.481 C453.903,28.006 453.825,31.353 453.675,33.521 C453.62,34.228 453.494,34.794 453.298,35.226 C453.125,35.698 452.802,35.995 452.347,36.121 C451.962,36.247 451.413,36.31 450.698,36.31 C450.195,36.31 449.958,36.436 449.991,36.696 C449.991,37.001 450.289,37.151 450.902,37.151 C453.204,37.088 455.128,37.049 456.661,37.018 C459.63,37.104 464.062,37.198 469.955,37.292 C471.101,37.292 471.856,37.198 472.233,37.009 C472.539,36.86 472.744,36.531 472.83,36.019 C473.01,35.21 473.175,34.189 473.325,32.955 C473.442,31.73 473.498,30.936 473.498,30.583 C473.498,30.064 473.379,29.797 473.136,29.797 C472.79,29.828 472.618,30.064 472.618,30.489 C472.468,31.565 472.068,32.508 471.431,33.324 C470.881,33.921 470.167,34.282 469.287,34.401 C468.375,34.574 467.314,34.66 466.096,34.66 C464.352,34.66 463.087,34.558 462.293,34.354 C461.493,34.173 460.911,33.929 460.557,33.623 C460.125,33.206 459.85,32.146 459.733,30.441 C459.607,28.815 459.568,26.497 459.59,23.472 L459.59,15.184 Z" id="Fill-3" fill="#FFFFFE" mask="url(#mask-2)"></path>
                </g>
                <path d="M501.003,158 L502.01,117.882 C502.328,105.206 503.281,92.46 502.966,79.813 C503.292,66.952 502.328,53.99 502.01,41.101 L501.003,0.305 L499.998,41.101 C499.679,53.99 498.715,66.952 499.042,79.813 C498.726,92.46 499.679,105.206 499.998,117.882 L501.003,158" id="Fill-5" fill="#FFFFFE"></path>
            </g>
        </g>
    </g>
</svg>